<svg xmlns="http://www.w3.org/2000/svg" width="32" height="32" viewBox="0 0 32 32" fill="none">
  <defs>
    <!-- Futuristic holographic gradients -->
    <linearGradient id="holoPrimary" x1="0%" y1="0%" x2="100%" y2="100%">
      <stop offset="0%" style="stop-color:#00D4FF;stop-opacity:1" />
      <stop offset="50%" style="stop-color:#8B5CF6;stop-opacity:1" />
      <stop offset="100%" style="stop-color:#FF00FF;stop-opacity:1" />
    </linearGradient>
    
    <!-- Quantum energy gradient -->
    <linearGradient id="quantumEnergy" x1="0%" y1="0%" x2="100%" y2="100%">
      <stop offset="0%" style="stop-color:#00FF88;stop-opacity:1" />
      <stop offset="100%" style="stop-color:#00D4FF;stop-opacity:1" />
    </linearGradient>
    
    <!-- Neural network gradient -->
    <linearGradient id="neuralNet" x1="0%" y1="0%" x2="100%" y2="100%">
      <stop offset="0%" style="stop-color:#FF6B6B;stop-opacity:1" />
      <stop offset="100%" style="stop-color:#4ECDC4;stop-opacity:1" />
    </linearGradient>
    
    <!-- Glow filter for futuristic effects -->
    <filter id="glow" x="-50%" y="-50%" width="200%" height="200%">
      <feGaussianBlur stdDeviation="2" result="coloredBlur"/>
      <feMerge> 
        <feMergeNode in="coloredBlur"/>
        <feMergeNode in="SourceGraphic"/>
      </feMerge>
    </filter>
    
    <!-- Animated pulse filter -->
    <filter id="pulse">
      <feGaussianBlur stdDeviation="1" result="coloredBlur"/>
      <feMerge> 
        <feMergeNode in="coloredBlur"/>
        <feMergeNode in="SourceGraphic"/>
      </feMerge>
    </filter>
  </defs>
  
  <!-- Outer quantum ring -->
  <circle cx="16" cy="16" r="15" fill="none" stroke="url(#holoPrimary)" stroke-width="0.8" opacity="0.6" filter="url(#glow)"/>
  <circle cx="16" cy="16" r="13" fill="none" stroke="url(#quantumEnergy)" stroke-width="0.4" opacity="0.4"/>
  
  <!-- Central holographic certificate core -->
  <rect x="8" y="10" width="16" height="20" rx="3" ry="3" fill="url(#holoPrimary)" opacity="0.2" filter="url(#pulse)"/>
  <rect x="9" y="11" width="14" height="18" rx="2" ry="2" fill="none" stroke="url(#holoPrimary)" stroke-width="0.6" opacity="0.8"/>
  
  <!-- Neural network connections -->
  <path d="M 4 8 Q 8 4 12 8" stroke="url(#neuralNet)" stroke-width="1" fill="none" opacity="0.7" filter="url(#glow)"/>
  <path d="M 20 8 Q 24 4 28 8" stroke="url(#neuralNet)" stroke-width="1" fill="none" opacity="0.7" filter="url(#glow)"/>
  <path d="M 4 24 Q 8 28 12 24" stroke="url(#neuralNet)" stroke-width="1" fill="none" opacity="0.7" filter="url(#glow)"/>
  <path d="M 20 24 Q 24 28 28 24" stroke="url(#neuralNet)" stroke-width="1" fill="none" opacity="0.7" filter="url(#glow)"/>
  
  <!-- Quantum data streams -->
  <circle cx="6" cy="6" r="1.5" fill="url(#quantumEnergy)" opacity="0.8" filter="url(#glow)"/>
  <circle cx="26" cy="6" r="1.5" fill="url(#quantumEnergy)" opacity="0.8" filter="url(#glow)"/>
  <circle cx="6" cy="26" r="1.5" fill="url(#quantumEnergy)" opacity="0.8" filter="url(#glow)"/>
  <circle cx="26" cy="26" r="1.5" fill="url(#quantumEnergy)" opacity="0.8" filter="url(#glow)"/>
  
  <!-- Central NFT verification matrix -->
  <rect x="12" y="14" width="8" height="8" rx="1" ry="1" fill="url(#quantumEnergy)" opacity="0.3"/>
  <rect x="13" y="15" width="6" height="6" rx="0.5" ry="0.5" fill="none" stroke="url(#quantumEnergy)" stroke-width="0.8" opacity="0.9"/>
  
  <!-- Holographic checkmark -->
  <path d="M 14 18 L 16 20 L 18 16" stroke="url(#holoPrimary)" stroke-width="1.5" fill="none" stroke-linecap="round" stroke-linejoin="round" filter="url(#glow)"/>
  
  <!-- Floating data particles -->
  <circle cx="10" cy="12" r="0.8" fill="url(#holoPrimary)" opacity="0.6" filter="url(#glow)"/>
  <circle cx="22" cy="12" r="0.8" fill="url(#holoPrimary)" opacity="0.6" filter="url(#glow)"/>
  <circle cx="10" cy="20" r="0.8" fill="url(#holoPrimary)" opacity="0.6" filter="url(#glow)"/>
  <circle cx="22" cy="20" r="0.8" fill="url(#holoPrimary)" opacity="0.6" filter="url(#glow)"/>
  
  <!-- Blockchain chain nodes -->
  <rect x="2" y="15" width="3" height="2" rx="1" ry="1" fill="url(#neuralNet)" opacity="0.7" filter="url(#glow)"/>
  <rect x="27" y="15" width="3" height="2" rx="1" ry="1" fill="url(#neuralNet)" opacity="0.7" filter="url(#glow)"/>
  
  <!-- Energy pulse lines -->
  <line x1="5" y1="16" x2="8" y2="16" stroke="url(#quantumEnergy)" stroke-width="0.5" opacity="0.8" filter="url(#glow)"/>
  <line x1="24" y1="16" x2="27" y2="16" stroke="url(#quantumEnergy)" stroke-width="0.5" opacity="0.8" filter="url(#glow)"/>
  
  <!-- Futuristic corner accents -->
  <polygon points="2,2 4,2 2,4" fill="url(#holoPrimary)" opacity="0.5" filter="url(#glow)"/>
  <polygon points="28,2 30,2 30,4" fill="url(#holoPrimary)" opacity="0.5" filter="url(#glow)"/>
  <polygon points="2,28 2,30 4,30" fill="url(#holoPrimary)" opacity="0.5" filter="url(#glow)"/>
  <polygon points="28,28 30,28 30,30" fill="url(#holoPrimary)" opacity="0.5" filter="url(#glow)"/>
</svg>
